<?xml version="1.0" encoding="UTF-8" standalone="no"?>
<!-- Created with Inkscape (http://www.inkscape.org/) -->

<svg
   xmlns:dc="http://purl.org/dc/elements/1.1/"
   xmlns:cc="http://creativecommons.org/ns#"
   xmlns:rdf="http://www.w3.org/1999/02/22-rdf-syntax-ns#"
   xmlns:svg="http://www.w3.org/2000/svg"
   xmlns="http://www.w3.org/2000/svg"
   xmlns:sodipodi="http://sodipodi.sourceforge.net/DTD/sodipodi-0.dtd"
   xmlns:inkscape="http://www.inkscape.org/namespaces/inkscape"
   version="1.1"
   id="svg4778"
   xml:space="preserve"
   width="144.34"
   height="148.42532"
   viewBox="0 0 144.34 148.42532"
   sodipodi:docname="logoSygnet.svg"
   inkscape:version="0.92.4 (5da689c313, 2019-01-14)"><metadata
     id="metadata4784"><rdf:RDF><cc:Work
         rdf:about=""><dc:format>image/svg+xml</dc:format><dc:type
           rdf:resource="http://purl.org/dc/dcmitype/StillImage" /><dc:title /></cc:Work></rdf:RDF></metadata><defs
     id="defs4782"><clipPath
       clipPathUnits="userSpaceOnUse"
       id="clipPath4794"><path
         d="M 0,111.319 H 108.255 V 0 H 0 Z"
         id="path4792"
         inkscape:connector-curvature="0" /></clipPath></defs><sodipodi:namedview
     pagecolor="#ffffff"
     bordercolor="#666666"
     borderopacity="1"
     objecttolerance="10"
     gridtolerance="10"
     guidetolerance="10"
     inkscape:pageopacity="0"
     inkscape:pageshadow="2"
     inkscape:window-width="1920"
     inkscape:window-height="1001"
     id="namedview4780"
     showgrid="false"
     inkscape:zoom="1.5900252"
     inkscape:cx="-118.07856"
     inkscape:cy="74.212663"
     inkscape:window-x="-9"
     inkscape:window-y="-9"
     inkscape:window-maximized="1"
     inkscape:current-layer="g4786" /><g
     id="g4786"
     inkscape:groupmode="layer"
     inkscape:label="logoSygnetTlo"
     transform="matrix(1.3333333,0,0,-1.3333333,0,148.42533)"><g
       id="g4788"
       transform="matrix(1.9399171,0,0,1.9399171,-51.398377,-52.315313)"><g
         id="g4790"
         clip-path="url(#clipPath4794)"><g
           id="g4796"
           transform="translate(72.2105,70.0223)"><path
             d="m 0,0 v 0 c 3.35,0 6.065,-2.715 6.065,-6.065 v -24.961 c 0,-1.58 -0.299,-3.063 -0.891,-4.449 -0.599,-1.387 -1.411,-2.6 -2.433,-3.64 -1.014,-1.041 -2.211,-1.859 -3.577,-2.455 -1.371,-0.598 -2.843,-0.896 -4.423,-0.896 -1.732,0 -3.329,0.327 -4.796,0.982 -1.462,0.654 -2.714,1.598 -3.752,2.831 l 4.734,3.814 c 0.502,-0.54 1.072,-0.935 1.704,-1.185 0.638,-0.251 1.343,-0.375 2.11,-0.375 0.734,0 1.416,0.134 2.054,0.405 0.632,0.267 1.19,0.643 1.676,1.125 0.479,0.481 0.857,1.05 1.123,1.705 0.27,0.655 0.406,1.348 0.406,2.08 z"
             style="fill:#1d1d1b;fill-opacity:1;fill-rule:nonzero;stroke:none"
             id="path4798"
             inkscape:connector-curvature="0" /></g><g
           id="g4800"
           transform="translate(40.7974,50.1947)"><path
             d="M 0,0 H 15.138 L 7.566,19.412 Z m -9.705,-8.782 17.271,42.35 17.277,-42.35 h -6.297 l -1.27,3.351 H -2.082 l -1.326,-3.351 z"
             style="fill:#1d1d1b;fill-opacity:1;fill-rule:nonzero;stroke:none"
             id="path4802"
             inkscape:connector-curvature="0" /></g></g></g></g></svg>